<mxfile host="app.diagrams.net" modified="2022-12-09T09:38:25.710Z" agent="5.0 (Windows NT 10.0; Win64; x64) AppleWebKit/537.36 (KHTML, like Gecko) Chrome/108.0.0.0 Safari/537.36 Edg/108.0.1462.42" etag="EtCO9q-P0lBxZxSMc_YP" version="20.6.0" type="github">
  <diagram id="jdz8rclNsTlGCT2IdnQB" name="Page-1">
    <mxGraphModel dx="1422" dy="832" grid="1" gridSize="10" guides="1" tooltips="1" connect="1" arrows="1" fold="1" page="1" pageScale="1" pageWidth="850" pageHeight="1100" math="0" shadow="0">
      <root>
        <mxCell id="0" />
        <mxCell id="1" parent="0" />
        <mxCell id="Dsl-AaVKq-iHEq60EzX0-8" value="&lt;font face=&quot;Times New Roman&quot;&gt;&lt;i&gt;Performance Expectancy&lt;/i&gt; (PE)&lt;br&gt;(X1)&lt;br&gt;&lt;/font&gt;" style="rounded=1;whiteSpace=wrap;html=1;" parent="1" vertex="1">
          <mxGeometry x="220" y="250" width="120" height="60" as="geometry" />
        </mxCell>
        <mxCell id="Dsl-AaVKq-iHEq60EzX0-9" value="&lt;i style=&quot;font-family: &amp;quot;Times New Roman&amp;quot;;&quot;&gt;Behavioral Intention&lt;/i&gt;&lt;span style=&quot;font-family: &amp;quot;Times New Roman&amp;quot;;&quot;&gt;&amp;nbsp;(BI)&lt;/span&gt;" style="rounded=1;whiteSpace=wrap;html=1;" parent="1" vertex="1">
          <mxGeometry x="510" y="370" width="120" height="60" as="geometry" />
        </mxCell>
        <mxCell id="Dsl-AaVKq-iHEq60EzX0-10" value="" style="endArrow=classic;html=1;rounded=0;exitX=1;exitY=0.5;exitDx=0;exitDy=0;entryX=0;entryY=0.5;entryDx=0;entryDy=0;" parent="1" source="Dsl-AaVKq-iHEq60EzX0-8" target="Dsl-AaVKq-iHEq60EzX0-9" edge="1">
          <mxGeometry width="50" height="50" relative="1" as="geometry">
            <mxPoint x="400" y="450" as="sourcePoint" />
            <mxPoint x="450" y="400" as="targetPoint" />
          </mxGeometry>
        </mxCell>
        <mxCell id="DMWh9ERDnPYuc6urLlba-1" value="&lt;i style=&quot;font-family: &amp;quot;Times New Roman&amp;quot;;&quot;&gt;Effort Expectancy&lt;/i&gt;&lt;span style=&quot;font-family: &amp;quot;Times New Roman&amp;quot;;&quot;&gt;&amp;nbsp;(EE)&lt;br&gt;(X2)&lt;br&gt;&lt;/span&gt;" style="rounded=1;whiteSpace=wrap;html=1;" parent="1" vertex="1">
          <mxGeometry x="220" y="330" width="120" height="60" as="geometry" />
        </mxCell>
        <mxCell id="DMWh9ERDnPYuc6urLlba-2" value="" style="endArrow=classic;html=1;rounded=0;exitX=1;exitY=0.5;exitDx=0;exitDy=0;" parent="1" source="DMWh9ERDnPYuc6urLlba-1" edge="1">
          <mxGeometry width="50" height="50" relative="1" as="geometry">
            <mxPoint x="400" y="530" as="sourcePoint" />
            <mxPoint x="510" y="400" as="targetPoint" />
          </mxGeometry>
        </mxCell>
        <mxCell id="DMWh9ERDnPYuc6urLlba-3" value="&lt;i style=&quot;font-family: &amp;quot;Times New Roman&amp;quot;;&quot;&gt;Social Influence&lt;/i&gt;&lt;span style=&quot;font-family: &amp;quot;Times New Roman&amp;quot;;&quot;&gt;&amp;nbsp;(SI)&lt;br&gt;(X3)&lt;br&gt;&lt;/span&gt;" style="rounded=1;whiteSpace=wrap;html=1;" parent="1" vertex="1">
          <mxGeometry x="220" y="410" width="120" height="60" as="geometry" />
        </mxCell>
        <mxCell id="DMWh9ERDnPYuc6urLlba-4" value="" style="endArrow=classic;html=1;rounded=0;exitX=1;exitY=0.5;exitDx=0;exitDy=0;entryX=0;entryY=0.5;entryDx=0;entryDy=0;" parent="1" source="DMWh9ERDnPYuc6urLlba-3" target="Dsl-AaVKq-iHEq60EzX0-9" edge="1">
          <mxGeometry width="50" height="50" relative="1" as="geometry">
            <mxPoint x="400" y="610" as="sourcePoint" />
            <mxPoint x="500" y="410" as="targetPoint" />
          </mxGeometry>
        </mxCell>
        <mxCell id="DMWh9ERDnPYuc6urLlba-5" value="&lt;font face=&quot;Times New Roman&quot;&gt;&lt;i&gt;Habit &lt;/i&gt;(H)&lt;br&gt;(X4)&lt;br&gt;&lt;/font&gt;" style="rounded=1;whiteSpace=wrap;html=1;" parent="1" vertex="1">
          <mxGeometry x="220" y="490" width="120" height="60" as="geometry" />
        </mxCell>
        <mxCell id="DMWh9ERDnPYuc6urLlba-6" value="" style="endArrow=classic;html=1;rounded=0;exitX=1;exitY=0.5;exitDx=0;exitDy=0;entryX=0;entryY=0.5;entryDx=0;entryDy=0;" parent="1" source="DMWh9ERDnPYuc6urLlba-5" target="Dsl-AaVKq-iHEq60EzX0-9" edge="1">
          <mxGeometry width="50" height="50" relative="1" as="geometry">
            <mxPoint x="410" y="670" as="sourcePoint" />
            <mxPoint x="500" y="410" as="targetPoint" />
          </mxGeometry>
        </mxCell>
      </root>
    </mxGraphModel>
  </diagram>
</mxfile>
